<svg width="25" height="24" viewBox="0 0 25 24" fill="none" xmlns="http://www.w3.org/2000/svg">
<g id="Arrow - Left">
<g id="Iconly/Light-Outline/Arrow---Left">
<g id="Arrow---Left">
<path id="Combined-Shape" d="M20.8333 12.2746C20.8333 12.6543 20.5394 12.9681 20.1581 13.0178L20.0521 13.0246L6.31875 13.024L11.2802 17.7675C11.586 18.0598 11.587 18.5347 11.2826 18.8282C11.0058 19.095 10.5718 19.1201 10.2655 18.9029L10.1777 18.8305L3.87564 12.8065C3.83534 12.7679 3.80033 12.7263 3.77062 12.6822C3.76223 12.669 3.75369 12.6554 3.74559 12.6416C3.73814 12.6297 3.73141 12.6174 3.72506 12.605C3.71624 12.5869 3.70762 12.5681 3.6998 12.5491C3.69344 12.5343 3.68814 12.52 3.68329 12.5056C3.67754 12.4877 3.67195 12.4686 3.66714 12.4493C3.66356 12.4358 3.66073 12.4227 3.65826 12.4097C3.65478 12.3903 3.65182 12.3701 3.64972 12.3498C3.64789 12.3343 3.6468 12.3189 3.64619 12.3035C3.64603 12.2942 3.64584 12.2844 3.64584 12.2746L3.64623 12.2455C3.64683 12.2308 3.64787 12.2161 3.64937 12.2014L3.64584 12.2746C3.64584 12.2273 3.6504 12.181 3.65914 12.1361C3.66116 12.1253 3.66357 12.1143 3.66625 12.1034C3.6718 12.0808 3.67821 12.0591 3.68559 12.0377C3.68922 12.0272 3.69344 12.0158 3.69795 12.0046C3.70708 11.982 3.71701 11.9605 3.72792 11.9396C3.733 11.9297 3.73868 11.9194 3.74462 11.9092C3.75439 11.8925 3.76444 11.8767 3.77508 11.8613C3.78258 11.8504 3.79089 11.839 3.79957 11.8278L3.80633 11.8192C3.82738 11.7928 3.85021 11.7677 3.87466 11.7443L3.8756 11.7436L10.1777 5.71857C10.4834 5.42629 10.9781 5.42727 11.2825 5.72077C11.5593 5.98759 11.5836 6.4043 11.3561 6.69746L11.2802 6.78143L6.32084 11.524L20.0521 11.5246C20.4836 11.5246 20.8333 11.8604 20.8333 12.2746Z" fill="#2F573B"/>
</g>
</g>
</g>
</svg>
