<svg width="64" height="64" viewBox="0 0 64 64" fill="none" xmlns="http://www.w3.org/2000/svg">
<g id="Frame 100">
<rect width="64" height="64" rx="16" fill="#E1F3DA"/>
<path id="Vector" d="M20 31.9887C20 31.7178 20.0942 31.4807 20.2943 31.2888C20.4944 31.1082 20.7415 31.0179 21.0005 31.0179H23.4016C23.6723 31.0179 23.896 31.1082 24.0843 31.3001C24.2608 31.492 24.355 31.7178 24.355 31.9887C24.355 32.2596 24.2726 32.4854 24.096 32.6773C23.9195 32.8692 23.6841 32.9595 23.4134 32.9595H21.0122C20.7415 32.9595 20.5061 32.8692 20.306 32.6773C20.1059 32.4854 20 32.2596 20 31.9887ZM23.3663 39.8119C23.3663 39.5522 23.4605 39.3264 23.637 39.1232L25.3672 37.5089C25.5438 37.3283 25.7792 37.2493 26.0617 37.2493C26.3442 37.2493 26.5796 37.3396 26.7679 37.5089C26.9562 37.6783 27.0504 37.8928 27.0504 38.1524C27.0504 38.4233 26.9562 38.6717 26.7679 38.8749L25.0965 40.4779C24.6139 40.8391 24.1314 40.8391 23.6488 40.4779C23.4605 40.2973 23.3663 40.0715 23.3663 39.8119ZM23.3663 24.1881C23.3663 23.9285 23.4605 23.7027 23.637 23.4995C23.8724 23.3076 24.1196 23.2173 24.3903 23.2173C24.6492 23.2173 24.8847 23.3076 25.0847 23.4882L26.7679 25.1477C26.9562 25.317 27.0504 25.5428 27.0504 25.8137C27.0504 26.0847 26.9562 26.3104 26.7679 26.4911C26.5796 26.6717 26.3442 26.762 26.0617 26.762C25.7792 26.762 25.5438 26.6717 25.3672 26.4911L23.6488 24.8768C23.4605 24.6961 23.3663 24.4591 23.3663 24.1881ZM26.3677 31.9887C26.3677 30.9389 26.6384 29.9567 27.1916 29.0536C27.7448 28.1505 28.4863 27.428 29.4397 26.8975C30.3931 26.3669 31.4054 26.1072 32.5 26.1072C33.3239 26.1072 34.1125 26.2653 34.8776 26.5814C35.6309 26.8975 36.29 27.3151 36.8314 27.8457C37.3846 28.3763 37.8202 28.9972 38.1379 29.7197C38.4557 30.4421 38.6205 31.2098 38.6205 32C38.6205 33.0611 38.3498 34.0433 37.7966 34.9464C37.2434 35.8495 36.5019 36.5607 35.5603 37.0912C34.6186 37.6218 33.5946 37.8815 32.4882 37.8815C31.3818 37.8815 30.3578 37.6218 29.4162 37.0912C28.4746 36.5607 27.7331 35.8495 27.1798 34.9464C26.6502 34.032 26.3677 33.0499 26.3677 31.9887ZM28.3686 31.9887C28.3686 33.095 28.7688 34.032 29.581 34.8109C30.3814 35.5898 31.3583 35.9849 32.5118 35.9849C33.6653 35.9849 34.6422 35.5898 35.4543 34.8109C36.2665 34.032 36.6784 33.095 36.6784 31.9887C36.6784 30.905 36.2665 29.9793 35.4543 29.2004C34.6422 28.4327 33.6653 28.0489 32.5118 28.0489C31.3701 28.0489 30.3931 28.4327 29.5927 29.2004C28.7688 29.9793 28.3686 30.905 28.3686 31.9887ZM31.4995 40.7714C31.4995 40.5005 31.5937 40.2747 31.7938 40.0941C31.9939 39.9135 32.2293 39.8231 32.5 39.8231C32.7825 39.8231 33.0297 39.9135 33.218 40.0941C33.4063 40.2747 33.5005 40.5005 33.5005 40.7714V43.0179C33.5005 43.2888 33.4063 43.5259 33.2062 43.7178C33.0061 43.9097 32.7707 44 32.5 44C32.2293 44 31.9821 43.9097 31.7938 43.7178C31.5937 43.5259 31.4995 43.2888 31.4995 43.0179V40.7714ZM31.4995 23.2738V20.9708C31.4995 20.7112 31.5937 20.4854 31.7938 20.2935C31.9939 20.1016 32.2293 20 32.5118 20C32.7943 20 33.0179 20.0903 33.218 20.2822C33.4181 20.4741 33.5122 20.6999 33.5122 20.9595V23.2738C33.5122 23.5334 33.4181 23.7479 33.218 23.9285C33.0179 24.1091 32.7825 24.1881 32.5118 24.1881C32.2411 24.1881 31.9939 24.0978 31.8056 23.9285C31.6172 23.7592 31.4995 23.5334 31.4995 23.2738ZM37.9967 38.1524C37.9967 37.8928 38.0909 37.6783 38.2674 37.5202C38.444 37.3396 38.6676 37.2606 38.9266 37.2606C39.209 37.2606 39.4444 37.3509 39.6328 37.5202L41.3512 39.1345C41.5395 39.3264 41.6337 39.5635 41.6337 39.8231C41.6337 40.0828 41.5395 40.3086 41.3512 40.4892C40.8804 40.8391 40.4096 40.8391 39.9388 40.4892L38.2674 38.8862C38.0909 38.683 37.9967 38.4459 37.9967 38.1524ZM37.9967 25.825C37.9967 25.5428 38.0909 25.317 38.2674 25.159L39.9388 23.4995C40.1389 23.3189 40.3743 23.2286 40.6332 23.2286C40.9157 23.2286 41.1511 23.3189 41.3395 23.5108C41.5395 23.7027 41.6337 23.9285 41.6337 24.1881C41.6337 24.4704 41.5395 24.7074 41.3512 24.8881L39.6328 26.5024C39.4209 26.683 39.1855 26.7733 38.9266 26.7733C38.6558 26.7733 38.444 26.683 38.2674 26.5024C38.0909 26.3217 37.9967 26.096 37.9967 25.825ZM40.6568 31.9887C40.6568 31.7178 40.7509 31.492 40.9393 31.2888C41.1276 31.1082 41.3512 31.0179 41.6102 31.0179H43.9878C44.2585 31.0179 44.4939 31.1195 44.694 31.3114C44.8941 31.5033 45 31.7291 45 31.9887C45 32.2484 44.8941 32.4741 44.694 32.666C44.4939 32.8579 44.2585 32.9483 43.9878 32.9483H41.6102C41.3395 32.9483 41.104 32.8579 40.9275 32.666C40.7509 32.4741 40.6568 32.2596 40.6568 31.9887Z" fill="#274E33"/>
</g>
</svg>
