<svg width="24" height="24" viewBox="0 0 24 24" fill="none" xmlns="http://www.w3.org/2000/svg">
<g id="Buy">
<g id="Iconly/Light-Outline/Buy">
<g id="Buy_2">
<path id="Combined-Shape" fill-rule="evenodd" clip-rule="evenodd" d="M16.4565 19.9519C15.7425 19.9519 15.1615 20.5319 15.1615 21.2459C15.1615 21.9599 15.7425 22.5409 16.4565 22.5409C17.1705 22.5409 17.7505 21.9599 17.7505 21.2459C17.7505 20.5319 17.1705 19.9519 16.4565 19.9519ZM5.17622 19.9519C4.46122 19.9519 3.88021 20.5319 3.88021 21.2459C3.88021 21.9599 4.46122 22.5409 5.17622 22.5409C5.89022 22.5409 6.47021 21.9599 6.47021 21.2459C6.47021 20.5319 5.89022 19.9519 5.17622 19.9519ZM20.7323 3.00949L18.6523 3.36949C18.3173 3.42849 18.0623 3.70649 18.0333 4.04649L17.7983 6.84749L16.9245 6.84786C16.7819 6.84793 16.6408 6.84799 16.5012 6.84805L14.8969 6.84882C14.769 6.84888 14.6426 6.84894 14.5175 6.84901L12.7461 6.84998C12.6348 6.85004 12.5249 6.85011 12.4163 6.85018L11.1749 6.85097C11.0766 6.85103 10.9795 6.8511 10.8837 6.85117L9.79184 6.85197C9.70564 6.85204 9.62061 6.85211 9.53674 6.85217L8.58479 6.85299C8.50991 6.85306 8.43614 6.85313 8.36343 6.8532L7.73776 6.85382C7.67137 6.85389 7.60602 6.85396 7.54167 6.85403L6.81711 6.85487C6.7606 6.85494 6.70505 6.85501 6.65042 6.85508L6.03865 6.85594C5.99122 6.85601 5.94466 6.85608 5.89896 6.85615L5.51015 6.8568C5.4694 6.85687 5.42946 6.85695 5.39031 6.85702L4.9572 6.8579C4.92408 6.85797 4.89169 6.85804 4.86 6.85812L4.59344 6.85878C4.56585 6.85886 4.53891 6.85893 4.51262 6.85901L4.22686 6.85991C4.20544 6.85998 4.1846 6.86006 4.16432 6.86014L3.99654 6.86082C3.97948 6.8609 3.96294 6.86097 3.94689 6.86105L3.77717 6.86197C3.76484 6.86205 3.75294 6.86213 3.74146 6.86221L3.64896 6.86291C3.63983 6.86299 3.63107 6.86307 3.62267 6.86314L3.55608 6.86385C3.54964 6.86393 3.5435 6.86401 3.53765 6.86409L3.49235 6.86481C3.48808 6.86489 3.48405 6.86497 3.48024 6.86505L3.45157 6.86578C3.44896 6.86586 3.44652 6.86594 3.44424 6.86602L3.42346 6.867L3.41992 6.86725C3.41018 6.86815 3.40732 6.86849 3.40732 6.86849C2.85032 6.94949 2.36032 7.24049 2.02632 7.68849C1.69232 8.13549 1.55231 8.68649 1.63231 9.23849L2.58132 15.7965C2.76032 17.0445 3.84431 17.9855 5.10431 17.9855H16.0253C17.3423 17.9855 18.4573 16.9575 18.5643 15.6425L19.4803 4.74849L20.9873 4.48849C21.3963 4.41649 21.6693 4.02949 21.5993 3.62049C21.5273 3.21149 21.1323 2.94549 20.7323 3.00949ZM17.1251 8.34783L17.6723 8.34749L17.0693 15.5195C17.0253 16.0715 16.5743 16.4855 16.0233 16.4855H5.10632C4.58532 16.4855 4.14031 16.0975 4.06631 15.5825L3.11632 9.02349C3.09432 8.86749 3.13332 8.71149 3.22832 8.58549C3.32232 8.45849 3.46032 8.37649 3.61632 8.35449C3.62352 8.35476 3.64079 8.35502 3.66764 8.35524L3.7764 8.35587C3.79915 8.35596 3.82417 8.35605 3.85141 8.35613L4.41792 8.35699C4.46571 8.35702 4.51541 8.35705 4.56695 8.35708L5.89892 8.35702C5.97324 8.357 6.04897 8.35696 6.12605 8.35693L7.64615 8.35601C7.73723 8.35594 7.8293 8.35587 7.92229 8.3558L8.78244 8.35511C8.88041 8.35503 8.97912 8.35495 9.0785 8.35486L9.98958 8.35406C10.0925 8.35397 10.1959 8.35387 10.2997 8.35378L10.9273 8.3532C11.0326 8.35311 11.1382 8.35301 11.244 8.35291L12.2017 8.35201C12.3085 8.35191 12.4154 8.35181 12.5222 8.35171L13.1628 8.35112C13.2695 8.35102 13.376 8.35092 13.4823 8.35082L14.1175 8.35025C14.2228 8.35015 14.3279 8.35006 14.4325 8.34997L15.363 8.34917C15.465 8.34908 15.5663 8.349 15.6671 8.34892L16.843 8.34802C16.9379 8.34795 17.032 8.34789 17.1251 8.34783ZM6.71242 10.5438C6.29842 10.5438 5.96242 10.8798 5.96242 11.2938C5.96242 11.7078 6.29842 12.0438 6.71242 12.0438H9.48442C9.89942 12.0438 10.2344 11.7078 10.2344 11.2938C10.2344 10.8798 9.89942 10.5438 9.48442 10.5438H6.71242Z" fill="currentColor"/>
</g>
</g>
</g>
</svg>
