<svg width="14" height="14" viewBox="0 0 14 14" fill="none" xmlns="http://www.w3.org/2000/svg">
<g id="Heart">
<g id="Iconly/Bold/Heart">
<g id="Heart_2">
<path id="Vector" d="M4.82988 1.46103C5.19738 1.4722 5.55321 1.53637 5.89796 1.65362H5.93238C5.95571 1.6647 5.97321 1.67695 5.98488 1.68804C6.11379 1.72945 6.23571 1.77612 6.35238 1.84029L6.57404 1.93945C6.66154 1.98612 6.76654 2.07304 6.82488 2.10862C6.88321 2.14304 6.94738 2.17862 6.99988 2.21887C7.64796 1.72362 8.43488 1.45529 9.24571 1.46103C9.61379 1.46103 9.98129 1.51304 10.3307 1.63029C12.4838 2.33029 13.2596 4.69279 12.6115 6.75779C12.244 7.81304 11.6432 8.77612 10.8563 9.56304C9.72988 10.6539 8.49379 11.6222 7.16321 12.4564L7.01738 12.5445L6.86571 12.4505C5.53046 11.6222 4.28738 10.6539 3.15046 9.5572C2.36879 8.77029 1.76738 7.81304 1.39404 6.75779C0.734877 4.69279 1.51071 2.33029 3.68713 1.61804C3.85629 1.5597 4.03071 1.51887 4.20571 1.49612H4.27571C4.43963 1.4722 4.60238 1.46103 4.76571 1.46103H4.82988ZM10.0274 3.30445C9.78821 3.2222 9.52571 3.35112 9.43821 3.59612C9.35654 3.84112 9.48488 4.10945 9.72988 4.19637C10.1038 4.33637 10.354 4.70445 10.354 5.1122V5.13029C10.343 5.26387 10.3832 5.39279 10.4649 5.49195C10.5465 5.59112 10.669 5.64887 10.7974 5.66112C11.0365 5.6547 11.2407 5.46279 11.2582 5.2172V5.14779C11.2757 4.33054 10.7805 3.59029 10.0274 3.30445Z" fill="#2F573B"/>
</g>
</g>
</g>
</svg>
