<svg width="13" height="13" viewBox="0 0 13 13" fill="none" xmlns="http://www.w3.org/2000/svg">
<g id="Heart" clip-path="url(#clip0_858_3131)">
<g id="Iconly/Light-Outline/Heart">
<g id="Heart_2">
<path id="Combined-Shape" fill-rule="evenodd" clip-rule="evenodd" d="M6.60694 2.92733C7.38325 2.5093 8.37991 2.44851 9.21396 2.78158C11.028 3.50985 11.4626 5.57332 10.8347 7.14715C9.86281 9.61996 6.33518 11.2685 6.18563 11.3376C6.13243 11.3623 6.07475 11.3725 6.01805 11.3686C5.96136 11.3646 5.90608 11.3469 5.85682 11.3155C5.71918 11.2273 2.47805 9.13343 1.83528 6.51831L1.83486 6.51782C1.43172 4.87144 2.14749 2.88795 4.0433 2.42001C4.93353 2.19924 5.87359 2.38949 6.60694 2.92733ZM4.20796 3.08763C2.67401 3.46646 2.18443 5.05364 2.50283 6.35456C3.00439 8.39376 5.42415 10.1835 6.06926 10.6297C6.77277 10.2736 9.4376 8.82156 10.1958 6.89434C10.6923 5.64902 10.427 4.00906 8.95844 3.41981C8.24689 3.13528 7.3879 3.2181 6.77003 3.63067C6.64091 3.71629 6.4707 3.70622 6.35377 3.60432C5.76551 3.09408 4.96397 2.90066 4.20796 3.08763ZM8.45602 4.29711C9.06511 4.54232 9.46316 5.12471 9.47103 5.7809C9.47292 5.97079 9.32098 6.12648 9.13109 6.12837C9.12143 6.12861 9.11225 6.12843 9.10265 6.12776C8.92571 6.11538 8.78523 5.9691 8.78314 5.78885C8.77924 5.41091 8.54996 5.07602 8.20005 4.93531C8.02354 4.86415 7.9383 4.66384 8.00893 4.48822C8.08051 4.3122 8.27893 4.22775 8.45602 4.29711Z" fill="#2F573B"/>
</g>
</g>
</g>
<defs>
<clipPath id="clip0_858_3131">
<rect width="11" height="11" fill="white" transform="translate(1.14217 0.6875) rotate(4)"/>
</clipPath>
</defs>
</svg>
