<svg width="24" height="24" viewBox="0 0 24 24" fill="none" xmlns="http://www.w3.org/2000/svg">
<g id="Notification">
<g id="Iconly/Light-Outline/Notification">
<g id="Notification_2">
<path id="Combined-Shape" fill-rule="evenodd" clip-rule="evenodd" d="M10.1218 19.779C10.6296 20.3221 11.2816 20.6204 11.9581 20.6204H11.959C12.6385 20.6204 13.2934 20.3221 13.8022 19.7781C14.0747 19.4891 14.5394 19.4656 14.8404 19.7263C15.1424 19.987 15.1669 20.4341 14.8953 20.723C14.1032 21.5672 13.061 22.0322 11.959 22.0322H11.9571C10.8581 22.0312 9.81787 21.5663 9.02865 20.7221C8.75709 20.4331 8.7816 19.9861 9.08356 19.7263C9.38552 19.4646 9.85022 19.4882 10.1218 19.779ZM12.0069 1.79688C16.3647 1.79688 19.2922 5.05523 19.2922 8.09805C19.2922 9.66323 19.7069 10.3268 20.1471 11.0308C20.5824 11.7253 21.0755 12.5141 21.0755 14.0049C20.7334 17.8138 16.5912 18.1244 12.0069 18.1244C7.42258 18.1244 3.27944 17.8138 2.94119 14.0651C2.93826 12.5141 3.4314 11.7253 3.86669 11.0308L4.02036 10.7824C4.39873 10.1582 4.7216 9.47909 4.7216 8.09805C4.7216 5.05523 7.64905 1.79688 12.0069 1.79688ZM12.0069 3.20864C8.58042 3.20864 6.19218 5.78558 6.19218 8.09805C6.19218 10.0548 5.6265 10.9592 5.1265 11.7573C4.72552 12.3983 4.40885 12.9046 4.40885 14.0049C4.57258 15.7799 5.79316 16.7126 12.0069 16.7126C18.1863 16.7126 19.4451 15.7385 19.6079 13.9437C19.6049 12.9046 19.2883 12.3983 18.8873 11.7573C18.3873 10.9592 17.8216 10.0548 17.8216 8.09805C17.8216 5.78558 15.4334 3.20864 12.0069 3.20864Z" fill="#363636"/>
</g>
</g>
</g>
</svg>
