<svg width="64" height="64" viewBox="0 0 64 64" fill="none" xmlns="http://www.w3.org/2000/svg">
<g id="Frame 102">
<rect width="64" height="64" rx="16" fill="#E1F3DA"/>
<g id="&#240;&#159;&#166;&#134; icon &#34;celsius&#34;">
<path id="Vector" d="M20 24.3718C20 23.1966 20.4164 22.1859 21.2262 21.3632C22.0591 20.5171 23.0308 20.1175 24.1876 20.1175C25.3212 20.1175 26.3161 20.5406 27.1258 21.3632C27.9356 22.2094 28.352 23.1966 28.352 24.3718C28.352 25.547 27.9356 26.5577 27.1258 27.3803C26.3161 28.2265 25.3212 28.6261 24.1876 28.6261C23.0308 28.6261 22.0359 28.203 21.2262 27.3803C20.4164 26.5577 20 25.547 20 24.3718ZM22.0359 24.3718C22.0359 24.9829 22.2442 25.5 22.6606 25.9466C23.1002 26.3932 23.6092 26.6047 24.2107 26.6047C24.8122 26.6047 25.3212 26.3932 25.7608 25.9466C26.2004 25.5 26.4086 24.9829 26.4086 24.3718C26.4086 23.7607 26.2004 23.2436 25.7608 22.797C25.3212 22.3504 24.8122 22.1389 24.2107 22.1389C23.6092 22.1389 23.1002 22.3504 22.6606 22.797C22.2442 23.2201 22.0359 23.7607 22.0359 24.3718ZM31.0358 34.7607C31.0358 36.5705 31.5216 38.1688 32.5164 39.5791C33.0254 40.3077 33.7426 40.8953 34.6681 41.3419C35.5704 41.765 36.6115 42 37.7683 42C41.1461 42 43.2746 40.6838 44.1306 38.0748C44.2231 37.7457 44.1769 37.4167 43.9918 37.1111C43.8067 36.8056 43.5522 36.641 43.2283 36.5705C42.9044 36.4765 42.5805 36.5235 42.3029 36.735C42.0252 36.9231 41.8402 37.1816 41.7707 37.5342C41.7707 37.5577 41.7707 37.5812 41.7476 37.6517L41.7013 37.8162C41.4468 38.2628 41.0998 38.6154 40.6602 38.8739C39.943 39.3205 38.9945 39.5321 37.8145 39.5321C37.0973 39.5321 36.4495 39.4145 35.8943 39.156C34.9688 38.7564 34.321 38.0513 33.9277 37.0641C33.6732 36.4295 33.5344 35.6538 33.5344 34.7842V27.2158C33.5344 26.8632 33.5576 26.5107 33.6038 26.1581C33.6964 25.265 34.0434 24.4423 34.6449 23.7137C35.3159 22.891 36.3801 22.4915 37.8377 22.4915C39.0407 22.4915 39.9893 22.703 40.6834 23.1261C41.1461 23.4081 41.4931 23.7607 41.7245 24.1838C41.7476 24.2308 41.7476 24.3013 41.7707 24.3718C41.7939 24.4423 41.7939 24.4893 41.7939 24.5128C41.8864 24.8419 42.0715 25.0769 42.326 25.2179C42.6036 25.3825 42.9044 25.406 43.2514 25.3355C43.5753 25.265 43.8298 25.0769 44.0149 24.7949C44.2 24.5128 44.2463 24.2073 44.1537 23.8547V23.8312L43.9686 23.2906C43.853 23.0321 43.6447 22.6795 43.3208 22.2799C43.0201 21.8568 42.6499 21.5278 42.2797 21.2457C41.7939 20.8932 41.1692 20.6111 40.3826 20.3526C39.596 20.1175 38.74 20 37.8145 20C36.6346 20 35.6166 20.2115 34.6912 20.6346C33.7889 21.0577 33.0717 21.6218 32.5858 22.3504C31.591 23.7372 31.082 25.359 31.082 27.2158V34.7607H31.0358Z" fill="#274E33"/>
</g>
</g>
</svg>
