<svg width="64" height="64" viewBox="0 0 64 64" fill="none" xmlns="http://www.w3.org/2000/svg">
<g id="Frame 103">
<rect width="64" height="64" rx="16" fill="#E1F3DA"/>
<g id="&#240;&#159;&#166;&#134; icon &#34;sleet&#34;">
<path id="Vector" d="M20 31.0966C20 29.7445 20.4323 28.544 21.2968 27.4949C22.1614 26.4458 23.2661 25.7581 24.5869 25.4667C24.9592 23.8698 25.7997 22.5644 27.1085 21.5386C28.4174 20.5129 29.9304 20 31.6354 20C32.6081 20 33.4966 20.1515 34.2771 20.4662C34.2771 20.4779 34.2771 20.4779 34.2891 20.4896C35.2978 20.8626 36.1864 21.4687 36.9428 22.2963H36.9789C37.7954 23.1472 38.3357 24.1612 38.6239 25.3502H38.9962C40.293 25.3502 41.4217 25.6882 42.3943 26.3526V26.3409C43.0307 26.7606 43.5711 27.2734 44.0034 27.8912C44.4356 28.509 44.7238 29.185 44.8799 29.9194C44.928 30.1642 44.952 30.3623 44.976 30.5255V30.5954C44.976 30.6071 44.976 30.6654 44.988 30.7936C45 30.9218 45 31.0151 45 31.0733V31.1083C45 32.134 44.7478 33.0898 44.2315 33.9641C43.7272 34.8383 43.0307 35.5493 42.1422 36.0738C41.2656 36.5983 40.293 36.8781 39.2363 36.9131C39.0802 36.9131 38.9962 36.8431 38.9962 36.7149V35.153C38.9962 35.0015 39.0802 34.9315 39.2363 34.9315C40.269 34.8849 41.1335 34.4886 41.854 33.7426C42.5744 32.9966 42.9347 32.1224 42.9347 31.1083C42.9347 30.0709 42.5504 29.185 41.7699 28.439C41.0014 27.6931 40.0768 27.3201 38.9962 27.3201H37.0629C36.9188 27.3201 36.8468 27.2501 36.8468 27.1219L36.7507 26.4342C36.6306 25.2686 36.1263 24.2661 35.2257 23.4152C35.2137 23.4036 35.2137 23.3919 35.2017 23.3803C35.1897 23.3686 35.1777 23.357 35.1777 23.3453C35.1657 23.3337 35.1537 23.322 35.1297 23.322C35.1297 23.2987 35.1177 23.287 35.1057 23.287C34.2291 22.5177 33.2085 22.0748 32.0317 21.9815C31.9476 21.9699 31.8156 21.9699 31.6234 21.9699C30.3026 21.9699 29.1619 22.4012 28.1892 23.2521C27.2166 24.103 26.6643 25.1637 26.5442 26.4225L26.4481 27.1102C26.4121 27.2152 26.316 27.2734 26.184 27.2734L25.5956 27.3084C24.5869 27.425 23.7344 27.8446 23.062 28.5556C22.3895 29.2666 22.0533 30.1175 22.0533 31.0966V31.1433H22.0893C22.1013 31.7028 22.2214 32.2273 22.4496 32.7169C22.6897 33.2181 23.0019 33.6377 23.4102 33.9874C23.6623 34.1972 23.9505 34.3837 24.2988 34.5469V34.5585C24.7791 34.78 25.2594 34.9082 25.7517 34.9315C25.8838 34.9315 25.9558 35.0015 25.9558 35.1413V36.7033C25.9558 36.8315 25.8838 36.9014 25.7517 36.9014C25.1273 36.8664 24.5389 36.7499 23.9745 36.5517V36.5634C22.9779 36.2254 22.1254 35.6659 21.4409 34.8966C20.7565 34.1272 20.3002 33.2181 20.1081 32.204V32.169C20.0961 32.1574 20.0961 32.1457 20.0961 32.1224C20.024 31.8193 20 31.4696 20 31.0966ZM26.6042 39.4541C26.6042 39.4191 26.6162 39.3725 26.6282 39.3026C26.6402 39.2443 26.6523 39.1977 26.6523 39.1627L26.7603 38.475C26.8444 38.1952 27.0005 37.9971 27.2526 37.8572C27.5048 37.7173 27.769 37.694 28.0692 37.764C28.3453 37.8456 28.5375 38.0087 28.6816 38.2419C28.8136 38.4866 28.8377 38.7314 28.7656 38.9762L28.5975 39.6756C28.4774 40.1884 28.1772 40.4449 27.6849 40.4449C27.6489 40.4449 27.5889 40.4332 27.5168 40.4216C27.4448 40.4099 27.3967 40.3983 27.3487 40.3983C27.0965 40.3283 26.9164 40.2001 26.7963 40.0136C26.6643 39.8388 26.6042 39.6523 26.6042 39.4541ZM27.4928 36.0272C27.4928 35.7474 27.5889 35.526 27.769 35.3395C27.9491 35.153 28.1892 35.0714 28.4774 35.0714C28.7656 35.0714 28.9938 35.1646 29.1859 35.3395C29.378 35.5143 29.4621 35.7474 29.4621 36.0272C29.4621 36.2953 29.366 36.5168 29.1859 36.7033C29.0058 36.8898 28.7656 36.9713 28.4774 36.9713C28.2012 36.9713 27.9731 36.8781 27.793 36.6916C27.6009 36.5051 27.4928 36.2836 27.4928 36.0272ZM29.4621 43.0092C29.4621 42.9626 29.4741 42.881 29.5101 42.7411L29.6662 42.0534C29.7502 41.7853 29.9183 41.5872 30.1585 41.459C30.4107 41.3191 30.6628 41.2958 30.915 41.3774C31.1912 41.424 31.4073 41.5755 31.5514 41.8086C31.6955 42.0418 31.7315 42.3099 31.6475 42.6013L31.4914 43.289C31.3713 43.7669 31.0471 44 30.5307 44C30.4467 44 30.3386 43.9883 30.2426 43.965C29.9784 43.8951 29.7863 43.7669 29.6542 43.5804C29.5341 43.3939 29.4621 43.2074 29.4621 43.0092ZM30.4107 39.6173C30.4107 39.3492 30.5067 39.1161 30.6868 38.9412C30.879 38.7547 31.1071 38.6731 31.3953 38.6731C31.6835 38.6731 31.9116 38.7664 32.1037 38.9412C32.2959 39.1277 32.3799 39.3492 32.3799 39.6173C32.3799 39.897 32.2839 40.1185 32.1037 40.305C31.9116 40.4915 31.6835 40.5731 31.3953 40.5731C31.1191 40.5731 30.891 40.4798 30.6988 40.2933C30.5067 40.1068 30.4107 39.8854 30.4107 39.6173ZM31.1551 36.9713C31.1551 36.8548 31.1671 36.7499 31.1912 36.6566L31.4673 35.6076C31.5514 35.3395 31.7195 35.1297 31.9597 34.9898C32.2118 34.8499 32.464 34.815 32.7281 34.8966C33.0163 34.9781 33.2205 35.1297 33.3646 35.3628C33.5086 35.5959 33.5327 35.8407 33.4486 36.0971L33.1364 37.1462C33.0403 37.4726 32.8722 37.6824 32.6441 37.7989C32.4159 37.9155 32.1518 37.9388 31.8756 37.8689C31.6354 37.8222 31.4553 37.7057 31.3353 37.5192C31.1912 37.3327 31.1431 37.1462 31.1551 36.9713ZM34.4693 39.4658C34.4693 39.4308 34.4693 39.3725 34.4813 39.3142C34.4933 39.2559 34.4933 39.2093 34.4933 39.186L34.6013 38.4983C34.6854 38.2186 34.8415 38.0204 35.0937 37.8805C35.3458 37.7407 35.61 37.7173 35.9102 37.7873C36.1864 37.8689 36.3905 38.0321 36.5226 38.2652C36.6667 38.51 36.6907 38.7547 36.6066 38.9995L36.4385 39.6989C36.3184 40.2118 36.0183 40.4682 35.5259 40.4682C35.4899 40.4682 35.4299 40.4565 35.3578 40.4449C35.2858 40.4332 35.2257 40.4216 35.1897 40.4216C34.9496 40.3516 34.7695 40.2234 34.6494 40.0369C34.5413 39.8504 34.4693 39.6639 34.4693 39.4658ZM35.3578 36.0389C35.3578 35.7591 35.4539 35.5376 35.634 35.3511C35.8261 35.1646 36.0543 35.0831 36.3425 35.0831C36.6306 35.0831 36.8588 35.1763 37.0509 35.3511C37.243 35.5376 37.3271 35.7591 37.3271 36.0389C37.3271 36.3069 37.231 36.5401 37.0509 36.7149C36.8708 36.8898 36.6427 36.983 36.3545 36.983C36.0663 36.983 35.8381 36.8898 35.658 36.7033C35.4659 36.5284 35.3578 36.3069 35.3578 36.0389Z" fill="#274E33"/>
</g>
</g>
</svg>
